:SAMPLES-PER-SECOND 30
:FULLY-SPECIFIED
:DEGREES
224
root  -16.6324 38.5787 25.0807 -177.919 1.27076 173.098
RightUpLeg  -23.3511 -29.1641 -12.7015
RightLeg  24.4362 3.34056 1.40682
RightFoot  -0.283862 -0.321317 3.30122
RightToes  -1.33073e-015 0 -3.6325e-017
Spine  21.0959 -2.7104 6.54617
Spine1  10.4825 -2.8625 3.72021
HEad  -16.0502 -22.2788 8.18282
LeftShoulder1  1.09127 0.301355 -27.9653
LeftArm  -13.733 -2.54623 -46.6496
LeftForeArm  18.2202 -70.7525 -33.2159
LeftHand  -0.308269 0.473485 7.29272
RightShoulder  0.0892665 -3.1814 23.8858
RightArm  -12.7153 28.0062 36.2962
RightForeArm  0.496354 66.5257 27.668
RightHand  -0.087099 4.20027 -1.33264
LeftUpLeg  -16.3549 4.74601 10.8845
LeftLeg  22.0532 -2.10536 -0.604857
LeftFoot  0.563294 0.575165 -5.54832
LeftToes  -1.93726e-010 2.42366e-011 2.16268e-013
225
root  -15.9277 38.9389 25.1036 -177.566 1.61739 172.35
RightUpLeg  -22.5747 -29.3161 -12.0187
RightLeg  21.8214 3.56009 1.49354
RightFoot  0.402459 -0.269188 2.64184
RightToes  -1.33073e-015 0 -3.6325e-017
Spine  20.674 -2.74399 6.34974
Spine1  10.6494 -2.93311 3.53341
HEad  -16.0716 -22.1766 7.71438
LeftShoulder1  1.06403 0.395948 -28.1283
LeftArm  -12.4688 -3.252 -46.7968
LeftForeArm  17.3651 -70.3591 -32.4304
LeftHand  -0.292833 0.604794 7.10724
RightShoulder  0.0560364 -3.29296 24.0795
RightArm  -13.7842 27.8943 35.7988
RightForeArm  1.10318 66.6799 27.8434
RightHand  -0.0685161 4.30601 -1.10101
LeftUpLeg  -16.3766 4.61154 7.51168
LeftLeg  23.5022 -1.03802 -0.163339
LeftFoot  -2.09264 0.436101 -5.2294
LeftToes  -1.93726e-010 2.42366e-011 2.16268e-013
226
root  -15.2417 39.292 25.0688 -177.434 1.82935 171.963
RightUpLeg  -20.7394 -28.0444 -11.9965
RightLeg  18.7269 2.23055 1.88117
RightFoot  1.08541 -0.250493 2.36668
RightToes  -1.33073e-015 0 -3.6325e-017
Spine  19.8051 -2.76227 6.42864
Spine1  11.1203 -2.83563 2.91797
HEad  -15.7516 -22.054 7.33224
LeftShoulder1  1.09215 0.288699 -27.8532
LeftArm  -11.7007 -3.49803 -47.2359
LeftForeArm  17.2062 -70.3076 -32.3412
LeftHand  -0.313257 0.192209 7.0372
RightShoulder  0.0263673 -3.38933 23.9473
RightArm  -15.0306 26.853 35.6056
RightForeArm  2.43919 67.4129 28.8768
RightHand  -0.0602256 3.6995 -1.02711
LeftUpLeg  -15.8052 4.08556 4.21603
LeftLeg  24.052 0.994169 0.812935
LeftFoot  -3.98496 0.306144 -4.37259
LeftToes  -1.93726e-010 2.42366e-011 2.16268e-013
227
root  -14.6375 39.5743 25.0138 -177.604 1.87518 171.723
RightUpLeg  -18.3827 -25.5319 -12.6731
RightLeg  15.8708 -0.397189 2.5451
RightFoot  1.5732 -0.246557 2.27176
RightToes  -1.33073e-015 0 -3.6325e-017
Spine  19.3016 -2.76595 6.13814
Spine1  10.8714 -2.91381 2.92158
HEad  -15.3519 -21.9344 6.42209
LeftShoulder1  1.05824 0.406042 -28.0476
LeftArm  -10.5898 -3.55676 -47.1611
LeftForeArm  17.1489 -70.2949 -32.3219
LeftHand  -0.307181 0.321579 7.07033
RightShoulder  -0.0502222 -3.64169 24.2618
RightArm  -15.055 26.2579 34.597
RightForeArm  2.59152 67.7956 29.5388
RightHand  -0.0649713 3.98491 -1.07028
LeftUpLeg  -14.7073 3.78289 0.789473
LeftLeg  23.5676 1.75283 1.17019
LeftFoot  -5.86881 0.204736 -3.57213
LeftToes  -1.93726e-010 2.42366e-011 2.16268e-013
228
root  -14.0577 39.7914 24.9358 -177.796 2.05886 171.713
RightUpLeg  -16.2881 -21.9702 -12.9978
RightLeg  13.2724 -3.5754 2.91907
RightFoot  1.93419 -0.234874 2.13224
RightToes  -1.33073e-015 0 -3.6325e-017
Spine  18.5111 -2.63995 5.86505
Spine1  10.6791 -2.85696 2.90435
HEad  -14.8028 -21.552 5.5939
LeftShoulder1  1.07277 0.364601 -28.0605
LeftArm  -10.0729 -3.13545 -47.0556
LeftForeArm  18.0305 -70.6707 -33.0586
LeftHand  -0.282391 0.172678 6.34254
RightShoulder  -0.0200542 -3.54371 23.9892
RightArm  -15.5543 24.6298 34.3124
RightForeArm  3.64521 68.6429 30.9896
RightHand  -0.10022 3.95826 -1.51182
LeftUpLeg  -13.1163 3.50615 -2.36079
LeftLeg  21.476 0.974947 0.763404
LeftFoot  -7.32733 0.177217 -3.82277
LeftToes  -1.93726e-010 2.42366e-011 2.16268e-013
